# xmcd
#
# Track frame offsets:
#	150
#	16755
#	29475
#	48000
#	63595
#	78555
#	95687
#	108992
#	124950
#	137902
#
# Disc length: 1993 seconds
#
# Revision: 2
# Processed by: cddbd v1.4PL0 Copyright (c) Steve Scherf et al.
# Submitted via: audiograbber 1.81.03
#
DISCID=8407c70a
DTITLE=Various Artist - Blues Women Today (ED CD 1996)
DYEAR=1996
DGENRE=Blues
TTITLE0=Angela Strehli - Two Bit Texas Town
TTITLE1=Toni Lynn Washington - Don't Let It End
TTITLE2=Michelle Willson - Girlfriend Says
TTITLE3=Marcia Ball - Blue House
TTITLE4=Irma Thomas - I'll Take Care Of You
TTITLE5=Ann Peebles - Fear No Evil
TTITLE6=Brenda Boykin and Johnny Nocturne Band - No! I Ain't Gonna Let You Go
TTITLE7=Miki Honeycutt - Come With Me
TTITLE8=Deanna Bogart - My Blue Mood
TTITLE9=Rory Block - God's Gift To Women
EXTD=
EXTT0=
EXTT1=
EXTT2=
EXTT3=
EXTT4=
EXTT5=
EXTT6=
EXTT7=
EXTT8=
EXTT9=
PLAYORDER=
